<svg width="151" height="25" viewBox="0 0 151 25" fill="none" xmlns="http://www.w3.org/2000/svg">
<path d="M21.0842 2.41003L12.6827 24.7429H8.43367L0 2.41003H3.92713L10.5582 20.9833L17.2214 2.41003H21.0842Z" fill="#00A3FF"/>
<path d="M26.02 4.69152C25.3547 4.69152 24.7968 4.46658 24.3461 4.01671C23.8955 3.56684 23.6701 3.00986 23.6701 2.34576C23.6701 1.68166 23.8955 1.12468 24.3461 0.674808C24.7968 0.224936 25.3547 0 26.02 0C26.6638 0 27.211 0.224936 27.6617 0.674808C28.1123 1.12468 28.3376 1.68166 28.3376 2.34576C28.3376 3.00986 28.1123 3.56684 27.6617 4.01671C27.211 4.46658 26.6638 4.69152 26.02 4.69152ZM27.8226 7.03728V24.7429H24.153V7.03728H27.8226Z" fill="#00A3FF"/>
<path d="M36.3101 9.60797C36.8466 8.70823 37.5547 8.012 38.4346 7.51928C39.3359 7.00514 40.3982 6.74807 41.6214 6.74807V10.5398H40.6879C39.2501 10.5398 38.1556 10.904 37.4045 11.6324C36.6749 12.3608 36.3101 13.6247 36.3101 15.4242V24.7429H32.6405V7.03728H36.3101V9.60797Z" fill="#00A3FF"/>
<path d="M49.2757 10.0257V19.8265C49.2757 20.4906 49.4259 20.9726 49.7263 21.2725C50.0482 21.551 50.5847 21.6902 51.3358 21.6902H53.5891V24.7429H50.692C49.0396 24.7429 47.7735 24.3573 46.8937 23.5861C46.0138 22.8149 45.5739 21.5617 45.5739 19.8265V10.0257H43.4816V7.03728H45.5739V2.63496H49.2757V7.03728H53.5891V10.0257H49.2757Z" fill="#00A3FF"/>
<path d="M73.0339 7.03728V24.7429H69.3642V22.6542C68.7848 23.3826 68.023 23.961 67.0788 24.3895C66.156 24.7965 65.1689 25 64.1173 25C62.7225 25 61.4671 24.7108 60.3512 24.1324C59.2567 23.554 58.3876 22.6971 57.7438 21.5617C57.1215 20.4263 56.8103 19.0553 56.8103 17.4486V7.03728H60.4477V16.9023C60.4477 18.4876 60.8447 19.7087 61.6387 20.5656C62.4328 21.401 63.5165 21.8188 64.8899 21.8188C66.2633 21.8188 67.347 21.401 68.141 20.5656C68.9565 19.7087 69.3642 18.4876 69.3642 16.9023V7.03728H73.0339Z" fill="#00A3FF"/>
<path d="M91.016 2.08869C93.0976 2.08869 94.9002 2.46358 96.4239 3.21337C97.9475 3.94173 99.1063 4.98072 99.9003 6.33033C100.694 7.67995 101.091 9.2545 101.091 11.054C101.091 11.868 101.016 12.65 100.866 13.3997C100.48 15.5848 99.6428 17.5343 98.3552 19.2481C97.0891 20.9619 95.4689 22.3115 93.4946 23.2969C91.5418 24.2609 89.3743 24.7429 86.9923 24.7429H78.0114L82.0351 2.08869H91.016ZM87.5073 19.2159C89.3529 19.2159 90.8872 18.7125 92.1105 17.7057C93.3337 16.6774 94.1169 15.2421 94.4603 13.3997C94.5461 12.9713 94.589 12.5107 94.589 12.018C94.589 10.5827 94.1491 9.47943 93.2693 8.70823C92.3894 7.93702 91.1555 7.55141 89.5675 7.55141H87.4108L85.3185 19.2159H87.5073Z" fill="#29E189"/>
<path d="M112.659 24.9679C110.749 24.9679 109.064 24.5715 107.605 23.7789C106.146 22.9863 105.019 21.8723 104.225 20.437C103.431 19.0017 103.034 17.3522 103.034 15.4884C103.034 12.8106 103.592 10.4327 104.708 8.35476C105.845 6.25536 107.423 4.62725 109.44 3.47044C111.478 2.31362 113.807 1.73522 116.425 1.73522C118.378 1.73522 120.084 2.13153 121.543 2.92417C123.024 3.69537 124.161 4.79863 124.955 6.23393C125.749 7.64781 126.146 9.28663 126.146 11.1504C126.146 13.8068 125.577 16.1847 124.44 18.2841C123.303 20.3835 121.715 22.0223 119.676 23.2005C117.637 24.3788 115.298 24.9679 112.659 24.9679ZM113.624 19.1195C114.891 19.1195 115.996 18.7875 116.94 18.1234C117.906 17.4593 118.635 16.581 119.129 15.4884C119.644 14.3745 119.901 13.1748 119.901 11.8895C119.901 10.5184 119.526 9.45801 118.775 8.70823C118.045 7.93702 116.994 7.55141 115.62 7.55141C114.354 7.55141 113.238 7.88346 112.272 8.54756C111.307 9.19023 110.566 10.0578 110.051 11.1504C109.536 12.2429 109.279 13.4426 109.279 14.7494C109.279 16.099 109.654 17.1701 110.405 17.9627C111.157 18.7339 112.23 19.1195 113.624 19.1195Z" fill="#29E189"/>
<path d="M128.274 13.3676C128.66 11.1397 129.476 9.1581 130.721 7.42288C131.965 5.66624 133.532 4.30591 135.42 3.3419C137.309 2.35647 139.369 1.86375 141.601 1.86375C143.468 1.86375 145.099 2.20651 146.493 2.89203C147.888 3.57755 148.972 4.55227 149.745 5.8162C150.517 7.08012 150.936 8.56898 151 10.2828H144.208C143.95 9.4473 143.5 8.80463 142.856 8.35476C142.212 7.90488 141.418 7.67995 140.474 7.67995C139.015 7.67995 137.759 8.19409 136.708 9.22237C135.656 10.2506 134.98 11.6324 134.68 13.3676C134.594 13.8175 134.551 14.2995 134.551 14.8136C134.551 16.1418 134.894 17.1915 135.581 17.9627C136.289 18.7125 137.255 19.0874 138.478 19.0874C139.422 19.0874 140.292 18.8625 141.086 18.4126C141.901 17.9627 142.577 17.3201 143.114 16.4846H149.938C148.908 19.0767 147.287 21.1332 145.077 22.6542C142.867 24.1538 140.345 24.9036 137.513 24.9036C135.56 24.9036 133.864 24.5287 132.427 23.7789C131.01 23.0291 129.927 21.9687 129.175 20.5977C128.424 19.2267 128.049 17.6414 128.049 15.8419C128.049 15.0064 128.124 14.1817 128.274 13.3676Z" fill="#29E189"/>
</svg>
